<svg height="512" viewBox="0 0 64 64" width="512" xmlns="http://www.w3.org/2000/svg" xmlns:xlink="http://www.w3.org/1999/xlink"><linearGradient id="New_Gradient_Swatch_3" gradientUnits="userSpaceOnUse" x1="35" x2="35" y1="62.971" y2="-.187"><stop offset="0" stop-color="#006df0"/><stop offset="1" stop-color="#00e7f0"/></linearGradient><linearGradient id="New_Gradient_Swatch_3-2" x1="27" x2="27" xlink:href="#New_Gradient_Swatch_3" y1="62.971" y2="-.187"/><linearGradient id="New_Gradient_Swatch_3-3" x1="19" x2="19" xlink:href="#New_Gradient_Swatch_3" y1="62.971" y2="-.187"/><linearGradient id="New_Gradient_Swatch_3-4" x1="11" x2="11" xlink:href="#New_Gradient_Swatch_3" y1="62.971" y2="-.187"/><linearGradient id="New_Gradient_Swatch_3-5" x1="32" x2="32" xlink:href="#New_Gradient_Swatch_3" y1="62.971" y2="-.187"/><linearGradient id="New_Gradient_Swatch_3-8" x1="51" x2="51" xlink:href="#New_Gradient_Swatch_3" y1="62.971" y2="-.187"/><g id="Sea_navigation" data-name="Sea navigation"><path d="m37 36h-4a1 1 0 0 0 -1 1v4a1 1 0 0 0 1 1h4a1 1 0 0 0 1-1v-4a1 1 0 0 0 -1-1zm-1 4h-2v-2h2z" fill="url(#New_Gradient_Swatch_3)"/><path d="m29 36h-4a1 1 0 0 0 -1 1v4a1 1 0 0 0 1 1h4a1 1 0 0 0 1-1v-4a1 1 0 0 0 -1-1zm-1 4h-2v-2h2z" fill="url(#New_Gradient_Swatch_3-2)"/><path d="m21 36h-4a1 1 0 0 0 -1 1v4a1 1 0 0 0 1 1h4a1 1 0 0 0 1-1v-4a1 1 0 0 0 -1-1zm-1 4h-2v-2h2z" fill="url(#New_Gradient_Swatch_3-3)"/><path d="m13 36h-4a1 1 0 0 0 -1 1v4a1 1 0 0 0 1 1h4a1 1 0 0 0 1-1v-4a1 1 0 0 0 -1-1zm-1 4h-2v-2h2z" fill="url(#New_Gradient_Swatch_3-4)"/><g fill="url(#New_Gradient_Swatch_3-5)"><path d="m61 53a4.351 4.351 0 0 0 -3.057 1.229 2.447 2.447 0 0 1 -3.566 0 4.415 4.415 0 0 0 -6.113 0 2.439 2.439 0 0 1 -3.559 0 4.409 4.409 0 0 0 -6.108 0 2.437 2.437 0 0 1 -3.557 0 4.41 4.41 0 0 0 -6.109 0 2.438 2.438 0 0 1 -3.558 0 4.408 4.408 0 0 0 -6.107 0 2.436 2.436 0 0 1 -3.555 0 4.405 4.405 0 0 0 -6.106 0 2.433 2.433 0 0 1 -3.553 0 4.339 4.339 0 0 0 -3.052-1.229 1 1 0 0 0 0 2 2.411 2.411 0 0 1 1.775.77 4.4 4.4 0 0 0 6.106 0 2.437 2.437 0 0 1 3.555 0 4.4 4.4 0 0 0 6.105 0 2.438 2.438 0 0 1 3.557 0 4.409 4.409 0 0 0 6.108 0 2.438 2.438 0 0 1 3.558 0 4.409 4.409 0 0 0 6.108 0 2.437 2.437 0 0 1 3.557 0 4.411 4.411 0 0 0 6.11 0 2.445 2.445 0 0 1 3.564 0 4.416 4.416 0 0 0 6.114 0 2.428 2.428 0 0 1 1.783-.77 1 1 0 0 0 0-2z"/><path d="m61 58a4.351 4.351 0 0 0 -3.057 1.229 2.447 2.447 0 0 1 -3.566 0 4.415 4.415 0 0 0 -6.113 0 2.439 2.439 0 0 1 -3.559 0 4.409 4.409 0 0 0 -6.108 0 2.437 2.437 0 0 1 -3.557 0 4.41 4.41 0 0 0 -6.109 0 2.438 2.438 0 0 1 -3.558 0 4.408 4.408 0 0 0 -6.107 0 2.436 2.436 0 0 1 -3.555 0 4.405 4.405 0 0 0 -6.106 0 2.433 2.433 0 0 1 -3.553 0 4.339 4.339 0 0 0 -3.052-1.229 1 1 0 0 0 0 2 2.411 2.411 0 0 1 1.775.77 4.4 4.4 0 0 0 6.106 0 2.437 2.437 0 0 1 3.555 0 4.4 4.4 0 0 0 6.105 0 2.438 2.438 0 0 1 3.557 0 4.409 4.409 0 0 0 6.108 0 2.438 2.438 0 0 1 3.558 0 4.409 4.409 0 0 0 6.108 0 2.437 2.437 0 0 1 3.557 0 4.411 4.411 0 0 0 6.11 0 2.445 2.445 0 0 1 3.564 0 4.416 4.416 0 0 0 6.114 0 2.428 2.428 0 0 1 1.783-.77 1 1 0 0 0 0-2z"/><path d="m61 48a4.351 4.351 0 0 0 -3.057 1.229 2.447 2.447 0 0 1 -3.566 0 7.154 7.154 0 0 0 -.885-.651l8.382-15.093a1 1 0 0 0 -.874-1.485h-13v-3.294c1.209 1.652 2.1 2.77 2.22 2.919a1 1 0 0 0 1.56 0c.42-.52 10.22-12.817 10.22-18.625a10.995 10.995 0 0 0 -21.574-3h-33.426a1 1 0 0 0 -1 1v13h-3a1 1 0 0 0 -1 1v24a1 1 0 0 0 1 1 2.411 2.411 0 0 1 1.775.77 4.4 4.4 0 0 0 6.106 0 2.437 2.437 0 0 1 3.555 0 4.4 4.4 0 0 0 6.105 0 2.438 2.438 0 0 1 3.557 0 4.409 4.409 0 0 0 6.108 0 2.438 2.438 0 0 1 3.558 0 4.409 4.409 0 0 0 6.108 0 2.437 2.437 0 0 1 3.557 0 4.411 4.411 0 0 0 6.11 0 2.423 2.423 0 0 1 1.781-.77 2.545 2.545 0 0 1 .524.052c.013 0 .026 0 .038.005a2.819 2.819 0 0 1 1.221.714 4.416 4.416 0 0 0 6.114 0 2.428 2.428 0 0 1 1.783-.771 1 1 0 0 0 0-2zm-43-32v10a1 1 0 0 0 2 0v-10h6v10a1 1 0 0 0 2 0v-10h6v10a1 1 0 0 0 2 0v-10h4.6a25.71 25.71 0 0 0 1.4 3.23v6.77a1 1 0 0 0 2 0v-3.217c.657 1.071 1.338 2.114 2 3.088v2.129h-6v-10a1 1 0 0 0 -2 0v10h-6v-10a1 1 0 0 0 -2 0v10h-6v-10a1 1 0 0 0 -2 0v10h-6v-10a1 1 0 0 0 -2 0v10h-.382l-1.618-3.236v-8.764zm28 14v2h-30.382l-1-2zm5-26a9.011 9.011 0 0 1 9 9c0 3.88-5.912 12.364-9 16.379-2.7-3.512-7.565-10.444-8.74-14.724 0-.015 0-.032-.01-.046a6.371 6.371 0 0 1 -.25-1.609 9.011 9.011 0 0 1 9-9zm-43 8h32.051c-.03.33-.051.662-.051 1a6.626 6.626 0 0 0 .088 1h-32.088zm0 4h2v8h-2zm40.264 33.229a2.439 2.439 0 0 1 -3.559 0 4.409 4.409 0 0 0 -6.108 0 2.437 2.437 0 0 1 -3.557 0 4.41 4.41 0 0 0 -6.109 0 2.438 2.438 0 0 1 -3.558 0 4.408 4.408 0 0 0 -6.107 0 2.436 2.436 0 0 1 -3.555 0 4.405 4.405 0 0 0 -6.106 0 2.433 2.433 0 0 1 -3.553 0 4.686 4.686 0 0 0 -2.052-1.122v-22.107h6.382l3.723 7.447a1 1 0 0 0 .895.553h44.3l-7.78 14.011c-.068 0-.129-.011-.2-.011a4.348 4.348 0 0 0 -3.056 1.229z"/></g><path d="m51 19a6 6 0 1 0 -6-6 6.006 6.006 0 0 0 6 6zm0-10a4 4 0 1 1 -4 4 4 4 0 0 1 4-4z" fill="url(#New_Gradient_Swatch_3-8)"/></g></svg>