<?xml version="1.0"?>
<svg xmlns="http://www.w3.org/2000/svg" viewBox="0 0 64 64" width="512" height="512"><g id="Sea_navigation" data-name="Sea navigation"><path d="M37,36H33a1,1,0,0,0-1,1v4a1,1,0,0,0,1,1h4a1,1,0,0,0,1-1V37A1,1,0,0,0,37,36Zm-1,4H34V38h2Z"/><path d="M29,36H25a1,1,0,0,0-1,1v4a1,1,0,0,0,1,1h4a1,1,0,0,0,1-1V37A1,1,0,0,0,29,36Zm-1,4H26V38h2Z"/><path d="M21,36H17a1,1,0,0,0-1,1v4a1,1,0,0,0,1,1h4a1,1,0,0,0,1-1V37A1,1,0,0,0,21,36Zm-1,4H18V38h2Z"/><path d="M13,36H9a1,1,0,0,0-1,1v4a1,1,0,0,0,1,1h4a1,1,0,0,0,1-1V37A1,1,0,0,0,13,36Zm-1,4H10V38h2Z"/><path d="M61,53a4.351,4.351,0,0,0-3.057,1.229,2.447,2.447,0,0,1-3.566,0,4.415,4.415,0,0,0-6.113,0,2.439,2.439,0,0,1-3.559,0,4.409,4.409,0,0,0-6.108,0,2.437,2.437,0,0,1-3.557,0,4.41,4.41,0,0,0-6.109,0,2.438,2.438,0,0,1-3.558,0,4.408,4.408,0,0,0-6.107,0,2.436,2.436,0,0,1-3.555,0,4.405,4.405,0,0,0-6.106,0,2.433,2.433,0,0,1-3.553,0A4.339,4.339,0,0,0,3,53a1,1,0,0,0,0,2,2.411,2.411,0,0,1,1.775.77,4.4,4.4,0,0,0,6.106,0,2.437,2.437,0,0,1,3.555,0,4.4,4.4,0,0,0,6.105,0,2.438,2.438,0,0,1,3.557,0,4.409,4.409,0,0,0,6.108,0,2.438,2.438,0,0,1,3.558,0,4.409,4.409,0,0,0,6.108,0,2.437,2.437,0,0,1,3.557,0,4.411,4.411,0,0,0,6.11,0,2.445,2.445,0,0,1,3.564,0,4.416,4.416,0,0,0,6.114,0A2.428,2.428,0,0,1,61,55a1,1,0,0,0,0-2Z"/><path d="M61,58a4.351,4.351,0,0,0-3.057,1.229,2.447,2.447,0,0,1-3.566,0,4.415,4.415,0,0,0-6.113,0,2.439,2.439,0,0,1-3.559,0,4.409,4.409,0,0,0-6.108,0,2.437,2.437,0,0,1-3.557,0,4.41,4.41,0,0,0-6.109,0,2.438,2.438,0,0,1-3.558,0,4.408,4.408,0,0,0-6.107,0,2.436,2.436,0,0,1-3.555,0,4.405,4.405,0,0,0-6.106,0,2.433,2.433,0,0,1-3.553,0A4.339,4.339,0,0,0,3,58a1,1,0,0,0,0,2,2.411,2.411,0,0,1,1.775.77,4.4,4.4,0,0,0,6.106,0,2.437,2.437,0,0,1,3.555,0,4.4,4.4,0,0,0,6.105,0,2.438,2.438,0,0,1,3.557,0,4.409,4.409,0,0,0,6.108,0,2.438,2.438,0,0,1,3.558,0,4.409,4.409,0,0,0,6.108,0,2.437,2.437,0,0,1,3.557,0,4.411,4.411,0,0,0,6.11,0,2.445,2.445,0,0,1,3.564,0,4.416,4.416,0,0,0,6.114,0A2.428,2.428,0,0,1,61,60a1,1,0,0,0,0-2Z"/><path d="M61,48a4.351,4.351,0,0,0-3.057,1.229,2.447,2.447,0,0,1-3.566,0,7.154,7.154,0,0,0-.885-.651l8.382-15.093A1,1,0,0,0,61,32H48V28.706c1.209,1.652,2.1,2.77,2.22,2.919a1,1,0,0,0,1.56,0C52.2,31.105,62,18.808,62,13a10.995,10.995,0,0,0-21.574-3H7a1,1,0,0,0-1,1V24H3a1,1,0,0,0-1,1V49a1,1,0,0,0,1,1,2.411,2.411,0,0,1,1.775.77,4.4,4.4,0,0,0,6.106,0,2.437,2.437,0,0,1,3.555,0,4.4,4.4,0,0,0,6.105,0,2.438,2.438,0,0,1,3.557,0,4.409,4.409,0,0,0,6.108,0,2.438,2.438,0,0,1,3.558,0,4.409,4.409,0,0,0,6.108,0,2.437,2.437,0,0,1,3.557,0,4.411,4.411,0,0,0,6.11,0A2.423,2.423,0,0,1,51.32,50a2.545,2.545,0,0,1,.524.052c.013,0,.026,0,.038.005a2.819,2.819,0,0,1,1.221.714,4.416,4.416,0,0,0,6.114,0A2.428,2.428,0,0,1,61,50a1,1,0,0,0,0-2ZM18,16V26a1,1,0,0,0,2,0V16h6V26a1,1,0,0,0,2,0V16h6V26a1,1,0,0,0,2,0V16h4.6A25.71,25.71,0,0,0,42,19.23V26a1,1,0,0,0,2,0V22.783c.657,1.071,1.338,2.114,2,3.088V28H40V18a1,1,0,0,0-2,0V28H32V18a1,1,0,0,0-2,0V28H24V18a1,1,0,0,0-2,0V28H16V18a1,1,0,0,0-2,0V28h-.382L12,24.764V16ZM46,30v2H15.618l-1-2ZM51,4a9.011,9.011,0,0,1,9,9c0,3.88-5.912,12.364-9,16.379-2.7-3.512-7.565-10.444-8.74-14.724,0-.015,0-.032-.01-.046A6.371,6.371,0,0,1,42,13,9.011,9.011,0,0,1,51,4ZM8,12H40.051c-.03.33-.051.662-.051,1a6.626,6.626,0,0,0,.088,1H8Zm0,4h2v8H8ZM48.264,49.229a2.439,2.439,0,0,1-3.559,0,4.409,4.409,0,0,0-6.108,0,2.437,2.437,0,0,1-3.557,0,4.41,4.41,0,0,0-6.109,0,2.438,2.438,0,0,1-3.558,0,4.408,4.408,0,0,0-6.107,0,2.436,2.436,0,0,1-3.555,0,4.405,4.405,0,0,0-6.106,0,2.433,2.433,0,0,1-3.553,0A4.686,4.686,0,0,0,4,48.107V26h6.382l3.723,7.447A1,1,0,0,0,15,34H59.3L51.52,48.011c-.068,0-.129-.011-.2-.011A4.348,4.348,0,0,0,48.264,49.229Z"/><path d="M51,19a6,6,0,1,0-6-6A6.006,6.006,0,0,0,51,19ZM51,9a4,4,0,1,1-4,4A4,4,0,0,1,51,9Z"/></g></svg>
