<svg id="Слой_1" data-name="Слой 1" xmlns="http://www.w3.org/2000/svg" viewBox="0 0 1106.05 354.36"><title>Wolga-Flot2</title><path d="M223.26,228.36l-1,1.15-55.48,60.57h-16.1V104.58h41.71a23.8,23.8,0,0,1,0,47.6H160.55v35.87h45.61a23.8,23.8,0,0,1,17.1,40.35M132.66,47.7a13.08,13.08,0,1,1,13.06-13.08A13.11,13.11,0,0,1,132.66,47.7m108.1,115.5a59.66,59.66,0,0,0-48.41-94.55H150.64v-4.5a34.64,34.64,0,1,0-35.94,0v4.5H44.94V104.5H114.7V290H98.6L0,181.9v92.82H35.88l72.95,79.64h47.62l92.94-101.5.15-.19a59.72,59.72,0,0,0-8.8-89.49" fill="#2b56ae"/><path d="M329.22,26.21q0,10.5-4.81,10.49-2.4,0-3.61-2.67a19.6,19.6,0,0,1-1.22-7.82q0-10.47,4.82-10.47c1.57,0,2.76.87,3.59,2.62S329.22,22.73,329.22,26.21Zm-3.07,0a22.56,22.56,0,0,0-.42-5.47c-.28-.91-.72-1.37-1.33-1.37s-1,.46-1.32,1.37a22.68,22.68,0,0,0-.42,5.47,23.45,23.45,0,0,0,.41,5.44c.28,1,.72,1.42,1.33,1.42s1-.45,1.33-1.36A22.64,22.64,0,0,0,326.15,26.21Z" fill="#686868"/><path d="M331.26,16.05h7.54v3.49h-4.63v4h1c1.83,0,3.09.56,3.79,1.67A9.05,9.05,0,0,1,340,30.07a9.56,9.56,0,0,1-.71,4,3.63,3.63,0,0,1-1.64,2,6.81,6.81,0,0,1-2.61.4h-3.82Zm2.91,11V32.9h.91a1.62,1.62,0,0,0,1.43-.64A4,4,0,0,0,337,30a5.5,5.5,0,0,0-.36-2.18,1.48,1.48,0,0,0-1.53-.81Z" fill="#686868"/><path d="M341.89,16.05h3.82a6.52,6.52,0,0,1,2.7.45,3.62,3.62,0,0,1,1.61,2,10.23,10.23,0,0,1,.65,3.89,11.07,11.07,0,0,1-.53,3.7,4.21,4.21,0,0,1-1.45,2.11,5,5,0,0,1-2.85.65h-1v7.52h-2.92Zm2.92,3.29v6h.9a1.48,1.48,0,0,0,1.54-.85,6,6,0,0,0,.35-2.21,5.3,5.3,0,0,0-.27-1.86,1.69,1.69,0,0,0-.62-.91,2,2,0,0,0-1-.21Z" fill="#686868"/><path d="M354,16.05h2.93l3.8,20.34h-3l-.66-4.2h-3.74l-.65,4.2H350Zm2.53,12.65-1.34-8.33-1.29,8.33Z" fill="#686868"/><path d="M363.87,22.22l-2.54-.73c.36-2.36.91-3.9,1.66-4.64a3.84,3.84,0,0,1,2.8-1.11,3.38,3.38,0,0,1,2.88,1.43,6.73,6.73,0,0,1,1.05,4q0,3.2-2,4.5,2.24,1,2.24,4.87a7.61,7.61,0,0,1-1.18,4.5,4.09,4.09,0,0,1-3.53,1.63,3.08,3.08,0,0,1-3.1-1.83A18,18,0,0,1,361,30.06l2.58-.64a7.68,7.68,0,0,0,.74,3.07,1.36,1.36,0,0,0,1.13.59,1.28,1.28,0,0,0,1.18-.77,4.43,4.43,0,0,0,.39-2c0-1.89-.68-2.84-2-2.84h-.44V24.2h.44a2.34,2.34,0,0,0,1-.18,1.39,1.39,0,0,0,.62-.77,4.12,4.12,0,0,0,.25-1.58c0-1.65-.45-2.48-1.36-2.48a1.41,1.41,0,0,0-.92.41A5.11,5.11,0,0,0,363.87,22.22Z" fill="#686868"/><path d="M381,26.21q0,10.5-4.82,10.49c-1.59,0-2.8-.89-3.61-2.67a19.63,19.63,0,0,1-1.21-7.82q0-10.47,4.81-10.47a3.88,3.88,0,0,1,3.59,2.62A19.27,19.27,0,0,1,381,26.21Zm-3.08,0a22.56,22.56,0,0,0-.42-5.47c-.28-.91-.72-1.37-1.33-1.37s-1,.46-1.32,1.37a22.68,22.68,0,0,0-.42,5.47,23.45,23.45,0,0,0,.41,5.44c.28,1,.72,1.42,1.33,1.42s1.05-.45,1.33-1.36A22.64,22.64,0,0,0,377.93,26.21Z" fill="#686868"/><path d="M383,16.05h4.53a5.79,5.79,0,0,1,2.41.39,3.09,3.09,0,0,1,1.36,1.7,8.38,8.38,0,0,1,.55,3.26q0,3.42-1.9,4.38,2.26,1.23,2.26,5a8.32,8.32,0,0,1-.61,3.35,3.59,3.59,0,0,1-1.52,1.82,5.82,5.82,0,0,1-2.55.45H383Zm2.8,8.21h.94c.94,0,1.53-.26,1.78-.77a4.19,4.19,0,0,0,.36-1.78,3.63,3.63,0,0,0-.36-1.64,1.58,1.58,0,0,0-1.56-.73h-1.16Zm0,8.64h1.43c1.34,0,2-.88,2-2.66a3.27,3.27,0,0,0-.5-2.08,1.86,1.86,0,0,0-1.51-.61h-1.43Z" fill="#686868"/><path d="M396.8,16.05h2.94l3.79,20.34h-3l-.66-4.2h-3.74l-.66,4.2h-2.68Zm2.54,12.65L398,20.37l-1.28,8.33Z" fill="#686868"/><path d="M404.64,16.05h2.92v8.21h3.19V16.05h2.92V36.39h-2.92V28.08h-3.19v8.31h-2.92Z" fill="#686868"/><path d="M418.52,16.05h2.94l3.79,20.34h-3l-.67-4.2h-3.74l-.65,4.2h-2.68Zm2.54,12.65-1.35-8.33-1.28,8.33Z" fill="#686868"/><path d="M430.07,16.05h4.54a5.74,5.74,0,0,1,2.4.39,3.06,3.06,0,0,1,1.37,1.7,8.56,8.56,0,0,1,.55,3.26c0,2.28-.64,3.74-1.9,4.38,1.5.82,2.26,2.48,2.26,5a8.15,8.15,0,0,1-.62,3.35,3.58,3.58,0,0,1-1.51,1.82,5.82,5.82,0,0,1-2.55.45h-4.54Zm2.81,8.21h.94c.94,0,1.53-.26,1.77-.77a4,4,0,0,0,.37-1.78,3.51,3.51,0,0,0-.37-1.64,1.56,1.56,0,0,0-1.56-.73h-1.15Zm0,8.64h1.43c1.34,0,2-.88,2-2.66a3.34,3.34,0,0,0-.5-2.08,1.87,1.87,0,0,0-1.51-.61h-1.43Z" fill="#686868"/><path d="M448.64,15.87h2.23v17.2h2.2v3.32h-7.36V33.07H448v-12a9.86,9.86,0,0,1-2.24,2.55v-4A10.91,10.91,0,0,0,448.64,15.87Z" fill="#686868"/><path d="M461.45,25.29a6.72,6.72,0,0,1,2.05,5.27,7.82,7.82,0,0,1-1.17,4.36,3.89,3.89,0,0,1-3.47,1.78,3.73,3.73,0,0,1-3.28-1.56,7,7,0,0,1-1.08-4,7,7,0,0,1,.45-2.6,5.43,5.43,0,0,1,1.71-2.14,6.33,6.33,0,0,1-1.78-4.78,7.75,7.75,0,0,1,1.05-4.11,3.84,3.84,0,0,1,6.21-.29,6.41,6.41,0,0,1,1,3.76A5.5,5.5,0,0,1,461.45,25.29Zm-3.11,2.53a4,4,0,0,0-1.27,3,3.64,3.64,0,0,0,.51,2.05,1.59,1.59,0,0,0,1.39.77,1.52,1.52,0,0,0,1.31-.7,2.88,2.88,0,0,0,.48-1.67,3.29,3.29,0,0,0-.4-1.56A6.2,6.2,0,0,0,458.34,27.82ZM459.69,24a4.9,4.9,0,0,0,.94-2.8,3.66,3.66,0,0,0-.38-1.81,1.19,1.19,0,0,0-1.09-.7,1.28,1.28,0,0,0-1.11.63,2.73,2.73,0,0,0-.43,1.59,2.65,2.65,0,0,0,.68,1.9A7.53,7.53,0,0,0,459.69,24Z" fill="#686868"/><path d="M469.36,15.74h3.17v12.4H474v3.47h-1.49v4.78h-2.92V31.61h-4.77V28.14Zm.49,12.63V20l-3,8.37Z" fill="#686868"/><path d="M477.68,21.7,475.15,21q1-5.23,4.37-5.23a3.35,3.35,0,0,1,2.89,1.46,6.82,6.82,0,0,1,1,4q0,3.22-2,4.53,2.23,1.09,2.24,4.84a7.29,7.29,0,0,1-1.23,4.58,3.81,3.81,0,0,1-3.12,1.56,3.87,3.87,0,0,1-3-1.37c-.84-.91-1.35-2.46-1.55-4.65l2.57-.65c.13,2,.71,3,1.73,3a1.27,1.27,0,0,0,1.13-.73,4.24,4.24,0,0,0,.42-2.09c0-1.85-.68-2.77-2-2.77h-.81V24.2h.81a2.39,2.39,0,0,0,1-.18,1.49,1.49,0,0,0,.62-.79,4.22,4.22,0,0,0,.24-1.56c0-1.65-.44-2.48-1.33-2.48S477.92,20,477.68,21.7Z" fill="#686868"/><path d="M497.75,16.05v3.49H492.6V36.39h-2.92V16.05Z" fill="#686868"/><path d="M508.24,26.21q0,10.5-4.81,10.49-2.4,0-3.61-2.67a19.63,19.63,0,0,1-1.21-7.82q0-10.47,4.81-10.47A3.88,3.88,0,0,1,507,18.36Q508.24,21,508.24,26.21Zm-3.07,0a22.56,22.56,0,0,0-.42-5.47c-.28-.91-.72-1.37-1.33-1.37s-1,.46-1.32,1.37a22.68,22.68,0,0,0-.42,5.47,23.45,23.45,0,0,0,.41,5.44c.28,1,.72,1.42,1.33,1.42s1.05-.45,1.33-1.36A22.64,22.64,0,0,0,505.17,26.21Z" fill="#686868"/><path d="M509.74,32.68l2.89-16.63h3.75L519,32.68h.83v7.84h-2.16l-.26-4.13h-6.08l-.26,4.13h-2.15V32.68Zm2.66,0H516l-1.59-12.34h-.37Z" fill="#686868"/><path d="M523.13,30.31l-4-14.26h3l2.29,8.89,2-8.89h2.71l-3.55,15.29a11.3,11.3,0,0,1-1.48,4,2.56,2.56,0,0,1-2.17,1h-1.23V32.61h1.23a.89.89,0,0,0,.59-.29A5.35,5.35,0,0,0,523.13,30.31Z" fill="#686868"/><path d="M339.67,135.19l10.78,1.29Q349.87,153.42,345,164t-13,10.64q-9.79,0-14.94-14.26t-5.14-39.26q0-25.23,5.1-39.49t15.14-14.26q16.62,0,18.1,40.26l-10.67,1.52Q339.17,86,332.2,86q-3.66,0-5.82,7.47t-2.16,29q0,19.2,2,26.41t6,7.21Q338.54,156.08,339.67,135.19Z" fill="#2b56ae"/><path d="M366.72,142,350.69,69h11.9l9.15,45.51L379.68,69H390.5l-14.21,78.22q-2.76,15.33-5.89,20.59t-8.7,5.26h-4.94V153.71h4.94a3.2,3.2,0,0,0,2.35-1.47C364.85,151.25,365.73,147.83,366.72,142Z" fill="#2b56ae"/><path d="M388.9,154.09,400.46,69h15l10.45,85.08h3.31v40.1h-8.64l-1.06-21.11H395.21l-1,21.11h-8.64v-40.1Zm10.64,0h14.53L407.7,91h-1.48Z" fill="#2b56ae"/><path d="M469.7,121q0,53.67-19.26,53.67-9.57,0-14.44-13.69t-4.87-40q0-53.6,19.27-53.6,9.42,0,14.36,13.42T469.7,121Zm-12.3,0q0-21-1.67-28t-5.33-7q-3.61,0-5.29,7t-1.68,28q0,20.58,1.66,27.82t5.31,7.25q3.62,0,5.31-6.94T457.4,121Z" fill="#2b56ae"/><path d="M472.43,69h13l6.31,27,6.68-27h11.19L497.1,116.09l14.17,57H498.46l-7.75-33.91L482,173.08H470.83l14.59-53.33Z" fill="#2b56ae"/><path d="M551.2,121q0,53.67-19.26,53.67-9.59,0-14.44-13.69t-4.87-40q0-53.6,19.27-53.6,9.42,0,14.36,13.42T551.2,121Zm-12.3,0q0-21-1.67-28t-5.33-7q-3.63,0-5.3,7t-1.67,28q0,20.58,1.66,27.82t5.31,7.25q3.61,0,5.31-6.94T538.9,121Z" fill="#2b56ae"/><path d="M557.2,154.09,568.75,69h15l10.44,85.08h3.31v40.1h-8.64l-1-21.11H563.5l-1,21.11h-8.64v-40.1Zm10.63,0h14.53L576,91h-1.47Z" fill="#2b56ae"/><path d="M601.33,69H613v42h12.76V69h11.68V173.08H625.77V130.54H613v42.54H601.33Z" fill="#2b56ae"/><path d="M656.87,69h11.75L683.8,173.08H671.86l-2.65-21.5h-15l-2.61,21.5H640.91ZM667,133.74l-5.37-42.63-5.15,42.63Z" fill="#2b56ae"/><path d="M721.63,173.08H710V131.91h-5.84L697,173.08H684.31l9.77-45.52q-7.47-7.92-7.47-27.44a69.15,69.15,0,0,1,1.49-15,30.22,30.22,0,0,1,4.15-10.52c1.76-2.57,3.51-4.14,5.23-4.73a24.57,24.57,0,0,1,7.46-.88h16.69ZM705.29,85.86A5.84,5.84,0,0,0,701.34,87a10,10,0,0,0-2.36,4.5,29.94,29.94,0,0,0-1,8.5q0,15,6.85,15H710V85.86Z" fill="#2b56ae"/><path d="M746.54,69h11.68v43.42L771.12,69h11.81l-13.34,38.28,14.47,65.79H772l-9.34-47.91-4.42,12.53v35.38H746.54Z" fill="#2b56ae"/><path d="M823.68,121q0,53.67-19.26,53.67-9.58,0-14.44-13.69t-4.87-40q0-53.6,19.27-53.6,9.42,0,14.36,13.42T823.68,121Zm-12.3,0q0-21-1.67-28t-5.33-7q-3.61,0-5.29,7t-1.68,28q0,20.58,1.66,27.82t5.31,7.25q3.61,0,5.31-6.94T811.38,121Z" fill="#2b56ae"/><path d="M831.82,69h17.12l7.51,64.27L864.9,69h16.62V173.08H870.58V85.94l-10.86,87.14h-8.48l-9.93-87.14v87.14h-9.49Z" fill="#2b56ae"/><path d="M891.56,69h36.12V173.08H916V88.53H903.24v84.55H891.56Z" fill="#2b56ae"/><path d="M947.1,69h11.75L974,173.08H962.09l-2.65-21.5h-15l-2.61,21.5H931.14Zm10.14,64.73-5.37-42.63-5.14,42.63Z" fill="#2b56ae"/><path d="M978.47,69h11.67v42h12.77V69h11.68V173.08h-11.68V130.54H990.14v42.54H978.47Z" fill="#2b56ae"/><path d="M1036.31,162.4v10.68h-11.68V69h11.68v58.4l1.75-6.33,11.87-40.55V69h11.67V173.08h-11.67v-53.9l0-4.12-1.87,6.86Z" fill="#2b56ae"/><path d="M1105,173.08h-11.68V131.91h-5.83l-7.11,41.17h-12.71l9.77-45.52q-7.47-7.92-7.47-27.44a68.5,68.5,0,0,1,1.5-15,30.42,30.42,0,0,1,4.14-10.52c1.77-2.57,3.51-4.14,5.24-4.73a24.5,24.5,0,0,1,7.45-.88H1105Zm-16.35-87.22a5.86,5.86,0,0,0-4,1.18,10,10,0,0,0-2.35,4.5,29.54,29.54,0,0,0-1,8.5q0,15,6.85,15h5.14V85.86Z" fill="#2b56ae"/><path d="M312.65,218.9h17.51c4.1,0,7.2.69,9.29,2s3.85,4.36,5.26,9a59.6,59.6,0,0,1,2.12,17.25q0,18-7.32,23.17,8.72,6.47,8.72,26.4a57.2,57.2,0,0,1-2.37,17.69q-2.37,7.21-5.84,9.61t-9.86,2.41H312.65Zm10.82,43.42h3.64q5.44,0,6.86-4.09a28.77,28.77,0,0,0,1.41-9.38,25.06,25.06,0,0,0-1.41-8.71q-1.41-3.82-6-3.82h-4.47Zm0,45.71H329q7.78,0,7.78-14.07,0-7.81-1.94-11a6.38,6.38,0,0,0-5.84-3.2h-5.52Z" fill="#2b56ae"/><path d="M391.27,272.65q0,55.47-18.59,55.47-9.24,0-13.94-14.14t-4.69-41.33q0-55.39,18.59-55.4,9.09,0,13.86,13.87T391.27,272.65Zm-11.87,0q0-21.75-1.61-29t-5.15-7.21q-3.5,0-5.11,7.25t-1.61,28.92q0,21.27,1.59,28.76t5.13,7.49q3.5,0,5.13-7.18T379.4,272.65Z" fill="#2b56ae"/><path d="M403.48,326.47H393.07L407.16,218.9h12.66l14.65,107.57H423.26l-10.17-84.41Z" fill="#2b56ae"/><path d="M475.68,265.24l16.18,61.23H480l-12.14-46.89-.48.71v46.18H456.07V280.29l-.38-.71-12.28,46.89H432.55l15.18-56L433.64,218.9h11.8l9.84,39.33.79.39V218.9h11.27v39.72l.41-.39L478,218.9H488.9Z" fill="#2b56ae"/><path d="M518.12,287.3l10.41,1.34q-.57,17.5-5.3,28.49t-12.51,11q-9.47,0-14.42-14.73t-5-40.59q0-26.07,4.92-40.81t14.61-14.74q16,0,17.47,41.61l-10.29,1.57q-.42-24-7.14-24-3.54,0-5.62,7.72t-2.08,29.94q0,19.86,1.91,27.31t5.75,7.45Q517,308.9,518.12,287.3Z" fill="#2b56ae"/><path d="M535.14,218.9h11.27v44.88l12.45-44.88h11.4l-12.88,39.56,14,68H559.69l-9-49.52-4.26,12.95v36.57H535.14Z" fill="#2b56ae"/><path d="M609.59,272.65q0,55.47-18.6,55.47-9.24,0-13.93-14.14t-4.7-41.33q0-55.39,18.6-55.4,9.09,0,13.86,13.87T609.59,272.65Zm-11.87,0q0-21.75-1.62-29T591,236.48q-3.5,0-5.11,7.25t-1.62,28.92q0,21.27,1.6,28.76T591,308.9q3.48,0,5.12-7.18T597.72,272.65Z" fill="#2b56ae"/><path d="M617.44,218.9h31.17v18.44h-19.9v25h15.47v18.44H628.71v26.48h19.9v19.23H617.44Z" fill="#2b56ae"/><path d="M668.48,218.9h34.86V326.47H692.07V239.08H679.75v87.39H668.48Z" fill="#2b56ae"/><path d="M722.09,218.9h11.34l14.65,107.57H736.56L734,304.25H719.56L717,326.47H706.69Zm9.79,66.91-5.18-44.07-5,44.07Z" fill="#2b56ae"/><path d="M752.36,218.9h14.76q6.74,0,10.43,2.37T783.77,232q2.51,8.31,2.51,20.6a78.19,78.19,0,0,1-2,19.54q-2,7.73-5.61,11.16t-11,3.42h-4v39.8H752.36Zm11.27,17.42v31.91h3.49a5.7,5.7,0,0,0,6-4.5A42.19,42.19,0,0,0,774.41,252a38.18,38.18,0,0,0-1-9.84q-1-3.75-2.4-4.81a6.11,6.11,0,0,0-3.86-1.07Z" fill="#2b56ae"/><path d="M827.07,272.65q0,55.47-18.59,55.47-9.24,0-13.93-14.14t-4.7-41.33q0-55.39,18.59-55.4,9.09,0,13.86,13.87T827.07,272.65Zm-11.86,0q0-21.75-1.62-29t-5.15-7.21q-3.5,0-5.1,7.25t-1.62,28.92q0,21.27,1.6,28.76t5.12,7.49q3.49,0,5.13-7.18T815.21,272.65Z" fill="#2b56ae"/><path d="M829.7,218.9h12.58l6.09,27.89,6.45-27.89h10.79l-12.09,48.66,13.67,58.91H854.83l-7.48-35.06L839,326.47h-10.8l14.09-55.12Z" fill="#2b56ae"/><path d="M905.73,272.65q0,55.47-18.59,55.47-9.24,0-13.94-14.14t-4.69-41.33q0-55.39,18.59-55.4,9.09,0,13.86,13.87T905.73,272.65Zm-11.87,0q0-21.75-1.61-29t-5.15-7.21q-3.5,0-5.11,7.25t-1.61,28.92q0,21.27,1.59,28.76t5.13,7.49q3.49,0,5.13-7.18T893.86,272.65Z" fill="#2b56ae"/><path d="M911.52,306.85l11.15-88h14.49l10.08,88h3.19V348.3h-8.34l-1-21.83H917.6l-1,21.83h-8.33V306.85Zm10.26,0h14l-6.14-65.25h-1.43Z" fill="#2b56ae"/><path d="M979.05,287.3l10.41,1.34q-.57,17.5-5.3,28.49t-12.51,11q-9.46,0-14.42-14.73t-5-40.59q0-26.07,4.92-40.81t14.62-14.74q16,0,17.46,41.61L979,260.43q-.42-24-7.14-24-3.52,0-5.61,7.72t-2.09,29.94q0,19.86,1.92,27.31t5.75,7.45Q978,308.9,979.05,287.3Z" fill="#2b56ae"/><path d="M991.56,218.9h32v20.18h-10.48v87.39h-11.27V239.08H991.56Z" fill="#2b56ae"/><path d="M1027.44,218.9h17.5c4.11,0,7.2.69,9.3,2s3.84,4.36,5.25,9a59.56,59.56,0,0,1,2.13,17.25q0,18-7.33,23.17,8.71,6.47,8.72,26.4a57.2,57.2,0,0,1-2.37,17.69q-2.37,7.21-5.84,9.61t-9.86,2.41h-17.5Zm10.81,43.42h3.65q5.44,0,6.85-4.09a28.77,28.77,0,0,0,1.41-9.38,25.06,25.06,0,0,0-1.41-8.71q-1.41-3.82-6-3.82h-4.47Zm0,45.71h5.52q7.79,0,7.78-14.07,0-7.81-1.93-11a6.39,6.39,0,0,0-5.85-3.2h-5.52Z" fill="#2b56ae"/><path d="M1106.05,272.65q0,55.47-18.59,55.47-9.24,0-13.94-14.14t-4.69-41.33q0-55.39,18.59-55.4,9.09,0,13.86,13.87T1106.05,272.65Zm-11.86,0q0-21.75-1.62-29t-5.15-7.21q-3.5,0-5.11,7.25t-1.61,28.92q0,21.27,1.6,28.76t5.12,7.49q3.49,0,5.13-7.18T1094.19,272.65Z" fill="#2b56ae"/></svg>