<?xml version="1.0" encoding="UTF-8" standalone="no"?>
<svg xmlns="http://www.w3.org/2000/svg" viewBox="0 0 265.7475 354.33124">
  <path d="m223.2 228.3-1.02 1.142-55.48 60.57h-16.1v-185.5h41.71c13.14 0.0275 23.78 10.66 23.8 23.8-0.0213 13.14-10.66 23.78-23.8 23.8v0.002h-31.82v35.87h31.82v0.002c0.0312 0 13.79-0.002 13.79-0.002 13.14 0.0262 23.78 10.67 23.8 23.8-0.009 6.489-2.526 12.22-6.699 16.55m-90.6-180.7c-7.222-0.01625-13.06-5.854-13.08-13.08 0.015-7.216 5.854-13.06 13.08-13.07 7.209 0.01 13.06 5.852 13.06 13.07-0.009 7.216-5.851 13.06-13.06 13.08m108.1 115.5c7.082-9.812 11.27-21.85 11.27-34.88-0.01-32.96-26.71-59.66-59.68-59.67h-41.71v-4.498c9.972-6.07 16.65-17.01 16.66-29.54-0.1-19.12-15.6-34.6-34.7-34.61-19.1 0.00525-34.55 15.49-34.56 34.6 0 12.53 6.66 23.47 16.66 29.54v4.495h-69.76v35.87h69.76v185.5h-16.1l-98.6-108.1v92.82h35.88l72.95 79.64h47.62l92.94-101.5 0.1538-0.19c10.02-10.63 16.22-25.13 16.2-40.89 0-20.1-9.9-37.8-25-48.6" fill="#2b56ae"/>
</svg>
